{
    "asset" : {
        "generator" : "Khronos glTF Blender I/O v1.5.17",
        "version" : "2.0"
    },
    "scene" : 0,
    "scenes" : [
        {
            "name" : "Scene",
            "nodes" : [
                0
            ]
        }
    ],
    "nodes" : [
        {
            "mesh" : 0,
            "name" : "pin",
            "rotation" : [
                0.7071068286895752,
                0,
                0,
                0.7071067094802856
            ],
            "translation" : [
                0.003537476062774658,
                -0.08995208889245987,
                -0.029936492443084717
            ]
        }
    ],
    "materials" : [
        {
            "doubleSided" : true,
            "emissiveFactor" : [
                0.10000000149011612,
                0.10000000149011612,
                0.10000000149011612
            ],
            "name" : "white3",
            "pbrMetallicRoughness" : {
                "metallicFactor" : 0.10000000149011612,
                "roughnessFactor" : 0.4343145787715912
            }
        },
        {
            "doubleSided" : true,
            "emissiveFactor" : [
                0.05000000074505806,
                0.05000000074505806,
                0.05000000074505806
            ],
            "name" : "black",
            "pbrMetallicRoughness" : {
                "baseColorFactor" : [
                    0.05098000168800354,
                    0.05098000168800354,
                    0.05098000168800354,
                    1
                ],
                "metallicFactor" : 0.10000000149011612,
                "roughnessFactor" : 0.4343145787715912
            }
        },
        {
            "doubleSided" : true,
            "emissiveFactor" : [
                0.10000000149011612,
                0.10000000149011612,
                0.10000000149011612
            ],
            "name" : "white1",
            "pbrMetallicRoughness" : {
                "metallicFactor" : 0.10000000149011612,
                "roughnessFactor" : 0.4343145787715912
            }
        },
        {
            "doubleSided" : true,
            "emissiveFactor" : [
                0.10000000149011612,
                0.10000000149011612,
                0.10000000149011612
            ],
            "name" : "white2",
            "pbrMetallicRoughness" : {
                "metallicFactor" : 0.10000000149011612,
                "roughnessFactor" : 0.4343145787715912
            }
        },
        {
            "doubleSided" : true,
            "emissiveFactor" : [
                0.05000000074505806,
                0.05000000074505806,
                0.05000000074505806
            ],
            "name" : "red",
            "pbrMetallicRoughness" : {
                "baseColorFactor" : [
                    1,
                    0,
                    0,
                    1
                ],
                "metallicFactor" : 0.05000000074505806,
                "roughnessFactor" : 0.4343145787715912
            }
        }
    ],
    "meshes" : [
        {
            "name" : "pin",
            "primitives" : [
                {
                    "attributes" : {
                        "POSITION" : 0,
                        "NORMAL" : 1,
                        "TEXCOORD_0" : 2
                    },
                    "indices" : 3,
                    "material" : 0
                },
                {
                    "attributes" : {
                        "POSITION" : 4,
                        "NORMAL" : 5,
                        "TEXCOORD_0" : 6
                    },
                    "indices" : 7,
                    "material" : 1
                },
                {
                    "attributes" : {
                        "POSITION" : 8,
                        "NORMAL" : 9,
                        "TEXCOORD_0" : 10
                    },
                    "indices" : 11,
                    "material" : 2
                },
                {
                    "attributes" : {
                        "POSITION" : 12,
                        "NORMAL" : 13,
                        "TEXCOORD_0" : 14
                    },
                    "indices" : 15,
                    "material" : 3
                },
                {
                    "attributes" : {
                        "POSITION" : 16,
                        "NORMAL" : 17,
                        "TEXCOORD_0" : 18
                    },
                    "indices" : 19,
                    "material" : 4
                }
            ]
        }
    ],
    "accessors" : [
        {
            "bufferView" : 0,
            "componentType" : 5126,
            "count" : 802,
            "max" : [
                0.37201374769210815,
                1.0505313873291016,
                0.5150785446166992
            ],
            "min" : [
                -0.37179625034332275,
                -0.7930116653442383,
                -0.6478503942489624
            ],
            "type" : "VEC3"
        },
        {
            "bufferView" : 1,
            "componentType" : 5126,
            "count" : 802,
            "type" : "VEC3"
        },
        {
            "bufferView" : 2,
            "componentType" : 5126,
            "count" : 802,
            "type" : "VEC2"
        },
        {
            "bufferView" : 3,
            "componentType" : 5123,
            "count" : 1200,
            "type" : "SCALAR"
        },
        {
            "bufferView" : 4,
            "componentType" : 5126,
            "count" : 5149,
            "max" : [
                1.0136637687683105,
                1.0489652156829834,
                0.9696215987205505
            ],
            "min" : [
                -0.9853332042694092,
                -0.9508785605430603,
                -1.0303131341934204
            ],
            "type" : "VEC3"
        },
        {
            "bufferView" : 5,
            "componentType" : 5126,
            "count" : 5149,
            "type" : "VEC3"
        },
        {
            "bufferView" : 6,
            "componentType" : 5126,
            "count" : 5149,
            "type" : "VEC2"
        },
        {
            "bufferView" : 7,
            "componentType" : 5123,
            "count" : 29400,
            "type" : "SCALAR"
        },
        {
            "bufferView" : 8,
            "componentType" : 5126,
            "count" : 3131,
            "max" : [
                1.0336447954177856,
                1.0689812898635864,
                0.9896326065063477
            ],
            "min" : [
                -0.9988582134246826,
                -0.8482285737991333,
                -0.4006112813949585
            ],
            "type" : "VEC3"
        },
        {
            "bufferView" : 9,
            "componentType" : 5126,
            "count" : 3131,
            "type" : "VEC3"
        },
        {
            "bufferView" : 10,
            "componentType" : 5126,
            "count" : 3131,
            "type" : "VEC2"
        },
        {
            "bufferView" : 11,
            "componentType" : 5123,
            "count" : 14772,
            "type" : "SCALAR"
        },
        {
            "bufferView" : 12,
            "componentType" : 5126,
            "count" : 1412,
            "max" : [
                0.28415578603744507,
                1.0535492897033691,
                0.42002665996551514
            ],
            "min" : [
                -0.29853326082229614,
                -0.7132545709609985,
                -0.5902203321456909
            ],
            "type" : "VEC3"
        },
        {
            "bufferView" : 13,
            "componentType" : 5126,
            "count" : 1412,
            "type" : "VEC3"
        },
        {
            "bufferView" : 14,
            "componentType" : 5126,
            "count" : 1412,
            "type" : "VEC2"
        },
        {
            "bufferView" : 15,
            "componentType" : 5123,
            "count" : 7200,
            "type" : "SCALAR"
        },
        {
            "bufferView" : 16,
            "componentType" : 5126,
            "count" : 3131,
            "max" : [
                1.027188777923584,
                0.9340792894363403,
                0.3402256369590759
            ],
            "min" : [
                -1.0053142309188843,
                -0.9708945751190186,
                -1.0503240823745728
            ],
            "type" : "VEC3"
        },
        {
            "bufferView" : 17,
            "componentType" : 5126,
            "count" : 3131,
            "type" : "VEC3"
        },
        {
            "bufferView" : 18,
            "componentType" : 5126,
            "count" : 3131,
            "type" : "VEC2"
        },
        {
            "bufferView" : 19,
            "componentType" : 5123,
            "count" : 14772,
            "type" : "SCALAR"
        }
    ],
    "bufferViews" : [
        {
            "buffer" : 0,
            "byteLength" : 9624,
            "byteOffset" : 0
        },
        {
            "buffer" : 0,
            "byteLength" : 9624,
            "byteOffset" : 9624
        },
        {
            "buffer" : 0,
            "byteLength" : 6416,
            "byteOffset" : 19248
        },
        {
            "buffer" : 0,
            "byteLength" : 2400,
            "byteOffset" : 25664
        },
        {
            "buffer" : 0,
            "byteLength" : 61788,
            "byteOffset" : 28064
        },
        {
            "buffer" : 0,
            "byteLength" : 61788,
            "byteOffset" : 89852
        },
        {
            "buffer" : 0,
            "byteLength" : 41192,
            "byteOffset" : 151640
        },
        {
            "buffer" : 0,
            "byteLength" : 58800,
            "byteOffset" : 192832
        },
        {
            "buffer" : 0,
            "byteLength" : 37572,
            "byteOffset" : 251632
        },
        {
            "buffer" : 0,
            "byteLength" : 37572,
            "byteOffset" : 289204
        },
        {
            "buffer" : 0,
            "byteLength" : 25048,
            "byteOffset" : 326776
        },
        {
            "buffer" : 0,
            "byteLength" : 29544,
            "byteOffset" : 351824
        },
        {
            "buffer" : 0,
            "byteLength" : 16944,
            "byteOffset" : 381368
        },
        {
            "buffer" : 0,
            "byteLength" : 16944,
            "byteOffset" : 398312
        },
        {
            "buffer" : 0,
            "byteLength" : 11296,
            "byteOffset" : 415256
        },
        {
            "buffer" : 0,
            "byteLength" : 14400,
            "byteOffset" : 426552
        },
        {
            "buffer" : 0,
            "byteLength" : 37572,
            "byteOffset" : 440952
        },
        {
            "buffer" : 0,
            "byteLength" : 37572,
            "byteOffset" : 478524
        },
        {
            "buffer" : 0,
            "byteLength" : 25048,
            "byteOffset" : 516096
        },
        {
            "buffer" : 0,
            "byteLength" : 29544,
            "byteOffset" : 541144
        }
    ],
    "buffers" : [
        {
            "byteLength" : 570688,
            "uri" : "pokeball4.bin"
        }
    ]
}
